<?xml version="1.0" encoding="iso-8859-1"?>
<!-- Generator: Adobe Illustrator 19.0.0, SVG Export Plug-In . SVG Version: 6.00 Build 0)  -->
<svg xmlns="http://www.w3.org/2000/svg" xmlns:xlink="http://www.w3.org/1999/xlink" version="1.1" id="Layer_1" x="0px" y="0px" viewBox="0 0 512 512" style="enable-background:new 0 0 512 512;" xml:space="preserve" width="512px" height="512px">
<g>
	<g>
		<path d="M509.818,312.314c-0.082-0.09-8.289-9.131-16.446-24.763c-7.801-14.95-26.96-30.196-34.712-35.972    c-0.919-13.624-3.792-49.181-9.371-61.036c-6.523-13.862-41.321-30.282-55.979-36.698c-11.332-4.96-50.257-21.145-75.38-21.145    c-31.93,0-64.3,13.868-72.496,17.63c-5.118-0.295-16.79-1.601-29.059-2.976c-23.11-2.588-51.871-5.808-66.533-5.808    c-15.078,0-37.375,11.129-53.214,21.545c-10.714,7.046-27.42,19.551-32.89,32.035c-21.294,3.324-32.246,22.84-41.198,38.805    c-5.818,10.376-11.313,20.176-17.954,23.497c-4.096,2.049-5.757,7.03-3.708,11.128c1.452,2.905,4.381,4.586,7.424,4.586    c1.246,0,2.511-0.283,3.703-0.878c11.199-5.599,18.218-18.116,25.004-30.22c8.574-15.29,15.472-26.249,25.867-29.685    c3.42,21.041,15.075,57.343,17.851,65.84c-13.132,20.054-32.418,32.581-32.651,32.731c-2.393,1.522-3.842,4.161-3.842,6.997v53.08    c0,4.581,3.712,8.294,8.294,8.294h17.693c2.666,0,5.17-1.282,6.728-3.444c1.559-2.163,1.984-4.944,1.14-7.473l-7.115-21.345    c6.658-5.673,21.123-17.076,37.573-24.371l9.801,7.158l-3.103,12.667c-0.689,2.817,0.142,5.787,2.191,7.838l17.693,17.693    c1.588,1.587,3.709,2.428,5.868,2.428c1.068,0,2.145-0.206,3.172-0.631c3.1-1.283,5.12-4.308,5.12-7.662v-35.387    c0-2.653-1.27-5.147-3.416-6.707l-8.638-6.282c9.982-3.531,18.669-8.638,25.94-15.257c20.075,16.815,49.784,25.422,86.45,25.422    c4.382,0,8.872-0.134,13.448-0.38l-6.091,18.274c-0.282,0.846-0.426,1.732-0.426,2.623v26.54c0,4.582,3.712,8.294,8.294,8.294    h17.693c2.875,0,5.545-1.488,7.055-3.933c1.511-2.446,1.649-5.499,0.363-8.07l-6.173-12.347l13.467-13.466    c0.629-0.63,1.155-1.359,1.553-2.155l8.847-17.693c0.453-0.907,0.714-1.857,0.818-2.808    c10.257,11.776,24.101,23.073,42.431,31.397l3.044,21.922c0.57,4.1,4.076,7.154,8.215,7.154h26.54    c3.387,0,6.433-2.059,7.696-5.202s0.488-6.737-1.957-9.08c-5.663-5.426-12.179-11.794-15.2-14.898    c-0.344-9.142-2.086-18.468-3.972-26.17c19.421,11.146,38.02,11.117,47.888,11.117l0.932-0.001c12.649,0,27.958,4.672,33.953,6.68    c1.909,0.639,3.887,0.953,5.858,0.953c3.858,0,7.687-1.204,10.893-3.52l2.982-2.154c2.548,1.431,5.425,2.224,8.445,2.279    c0.109,0.002,0.218,0.002,0.327,0.002c4.776,0,9.434-1.925,12.824-5.314l10.205-10.205    C512.715,320.653,512.815,315.587,509.818,312.314z M284.576,330.708l-9.593,9.591l6.096-18.288    c2.768-0.324,5.567-0.691,8.393-1.097L284.576,330.708z M487.644,322.266c-0.387,0.387-0.818,0.466-1.117,0.456    c-0.39-0.007-0.719-0.151-0.976-0.43c-7.397-7.961-18.772-18.194-30.948-21.729c-4.393-1.279-8.999,1.252-10.277,5.652    c-1.277,4.398,1.253,9,5.652,10.277c4.475,1.299,9.699,4.474,15.206,9.169l-0.103,0.074c-0.533,0.386-1.16,0.488-1.767,0.285    c-8.406-2.817-24.678-7.54-39.224-7.54l-0.952,0.001c-11.448,0.002-30.515,0.025-49.304-15.704    c2.616-7.313,5.657-18.245,6.909-32.02c0.415-4.562-2.947-8.596-7.509-9.01c-4.549-0.435-8.596,2.946-9.009,7.509    c-2.007,22.071-9.27,35.718-9.329,35.826c-1.166,2.117-1.347,4.641-0.501,6.905c0.06,0.157,4.2,11.346,6.616,24.551    c-46.626-19.514-61.329-61.496-61.329-71.693c0-4.582-3.712-8.294-8.294-8.294c-4.581,0-8.294,3.712-8.294,8.294    c0,7.266,3.846,22.109,13.708,38.133c-72.505,12.73-107.578-4.413-122.704-16.906c3.628-5.173,6.871-11.056,9.875-17.887    c1.845-4.193-0.06-9.088-4.252-10.932c-4.192-1.841-9.087,0.06-10.932,4.252c-7.087,16.11-18.236,33.396-47.187,39.456    c-25.992,5.44-50.426,24.134-60.781,32.913v-11.599c9.428-6.84,33.486-26.415,43.735-54.594c1.565-4.305-0.656-9.063-4.96-10.629    c-2.729-0.991-5.635-0.46-7.798,1.156c-6.494-21.203-13.282-46.281-13.282-55.27c0.146-2.663,7.31-12.97,27.643-26.258    c16.707-10.919,34.671-18.545,43.684-18.545c13.737,0,41.988,3.163,64.687,5.705c17.917,2.006,28.268,3.142,32.627,3.142    c1.265,0,2.514-0.29,3.648-0.846c0.345-0.168,34.772-16.847,67.126-16.847c14.338,0,41.315,7.754,68.728,19.753    c29.366,12.853,45.776,24.644,47.622,28.565c3.799,8.072,6.967,40.405,8.073,58.89c0.151,2.539,1.459,4.867,3.548,6.318    c6.916,4.803,26.283,19.987,32.765,32.411c5.121,9.814,10.26,17.314,13.894,22.127L487.644,322.266z" fill="#FFFFFF"/>
	</g>
</g>
<g>
	<g>
		<path d="M424.38,206.456c-2.875-3.452-17.985-20.677-32.911-20.677c-2.792,0-8.068,1.035-12.011,7.971    c-6.914,12.162-7.012,37.659,4.885,57.645c1.55,2.606,4.307,4.053,7.134,4.053c1.443,0,2.905-0.377,4.234-1.169    c3.937-2.342,5.228-7.432,2.884-11.368c-9.62-16.162-7.801-34.575-5.16-40.214c5.39,1.627,13.635,8.927,18.202,14.379    c2.932,3.518,8.161,3.993,11.681,1.062C426.837,215.207,427.311,209.976,424.38,206.456z" fill="#FFFFFF"/>
	</g>
</g>
<g>
</g>
<g>
</g>
<g>
</g>
<g>
</g>
<g>
</g>
<g>
</g>
<g>
</g>
<g>
</g>
<g>
</g>
<g>
</g>
<g>
</g>
<g>
</g>
<g>
</g>
<g>
</g>
<g>
</g>
</svg>
